<?xml version="1.0" encoding="UTF-8"?>
<!-- Generator: visioncortex VTracer 0.6.4 -->
<svg version="1.1" xmlns="http://www.w3.org/2000/svg" width="505" height="457">
<path d="M0 0 C6.298 0.06 11.77 1.764 17 5.25 C16.778 5.834 16.557 6.418 16.328 7.02 C15.753 9.281 15.753 9.281 17.109 11.074 C17.651 11.689 18.192 12.304 18.75 12.938 C22.644 17.774 25 22.977 25 29.25 C25.66 29.25 26.32 29.25 27 29.25 C27 32.25 27 35.25 27 38.25 C27.309 39.178 27.619 40.106 27.938 41.062 C29.891 46.922 30.12 52.122 30 58.25 C30.66 58.25 31.32 58.25 32 58.25 C32.263 57.538 32.526 56.827 32.797 56.094 C35.836 48.91 40.172 41.291 47 37.25 C49.934 36.388 52.08 36.302 55 37.25 C61.448 41.63 62.641 50.363 64.264 57.458 C65.288 61.899 66.322 65.461 69 69.25 C76.151 68.845 81.627 66.425 88 63.25 C87.67 62.404 87.34 61.559 87 60.688 C85.114 54.206 86.047 49.143 88.312 42.875 C88.742 41.65 89.171 40.426 89.613 39.164 C90.3 37.722 90.3 37.722 91 36.25 C91.99 35.92 92.98 35.59 94 35.25 C94 34.26 94 33.27 94 32.25 C96.685 27.544 99.76 23.101 105.125 21.5 C109 21.25 109 21.25 111.75 22.125 C116.592 26.698 118.573 32.395 119.035 38.961 C118.924 46.179 116.411 51.997 113 58.25 C125.945 61.882 139.986 57.08 152 52.25 C152.598 52.91 153.196 53.57 153.812 54.25 C155.875 56.587 155.875 56.587 159 56.25 C159 57.24 159 58.23 159 59.25 C158.01 59.58 157.02 59.91 156 60.25 C155.34 59.92 154.68 59.59 154 59.25 C154 60.24 154 61.23 154 62.25 C154.99 62.58 155.98 62.91 157 63.25 C157.66 63.91 158.32 64.57 159 65.25 C158.01 65.25 157.02 65.25 156 65.25 C156 65.91 156 66.57 156 67.25 C155.34 67.25 154.68 67.25 154 67.25 C154 67.91 154 68.57 154 69.25 C152.421 69.642 150.836 70.013 149.25 70.375 C147.927 70.688 147.927 70.688 146.578 71.008 C143.671 71.281 142.433 70.785 140 69.25 C139.67 69.91 139.34 70.57 139 71.25 C137 71.938 137 71.938 135 72.25 C134.67 71.92 134.34 71.59 134 71.25 C134 71.91 134 72.57 134 73.25 C129.311 74.434 124.741 74.44 119.938 74.438 C118.673 74.442 118.673 74.442 117.382 74.446 C111.583 74.409 106.185 73.82 100.543 72.395 C94.754 72.065 89.089 76.928 84.25 79.875 C77.209 84.145 77.209 84.145 75 85.25 C75 84.59 75 83.93 75 83.25 C74.34 82.92 73.68 82.59 73 82.25 C72.67 83.57 72.34 84.89 72 86.25 C71.01 86.25 70.02 86.25 69 86.25 C69 85.59 69 84.93 69 84.25 C67.422 84.652 67.422 84.652 65.812 85.062 C62 85.25 62 85.25 59.25 83.375 C54.332 76.544 53.335 68.437 51.844 60.289 C51.011 57.288 50.42 56.119 48 54.25 C40.298 65.867 40.298 65.867 37 79.25 C35.68 79.25 34.36 79.25 33 79.25 C32.505 80.735 32.505 80.735 32 82.25 C32 81.59 32 80.93 32 80.25 C31.34 80.25 30.68 80.25 30 80.25 C30.33 81.57 30.66 82.89 31 84.25 C29.538 83.826 28.08 83.385 26.625 82.938 C25.813 82.694 25.001 82.45 24.164 82.199 C22 81.25 22 81.25 20 78.25 C20.263 76.279 20.529 74.309 20.828 72.344 C21.1 69.03 20.045 66.386 19 63.25 C16.98 56.205 15.746 49.492 15.223 42.188 C14.486 32.472 12.594 24.782 6 17.25 C0.53 14.565 -6.196 14.315 -12 16.25 C-12.66 17.24 -13.32 18.23 -14 19.25 C-18.316 21.25 -18.316 21.25 -20 21.25 C-20 21.91 -20 22.57 -20 23.25 C-20.99 23.58 -21.98 23.91 -23 24.25 C-23 24.91 -23 25.57 -23 26.25 C-22.199 26.463 -21.399 26.675 -20.574 26.895 C-18 28.25 -18 28.25 -17.145 30.824 C-17.035 31.852 -16.925 32.879 -16.812 33.938 C-16.276 38.579 -15.291 42.76 -14 47.25 C-13.116 51.381 -12.356 55.537 -11.588 59.691 C-9.994 69.767 -9.994 69.767 -5 78.25 C-4.656 80.273 -4.656 80.273 -4.5 82.625 C-4.272 86.039 -3.539 88.217 -2 91.25 C-2.5 93.437 -2.5 93.437 -4 95.25 C-7.063 95.875 -7.063 95.875 -10 96.25 C-10.33 96.91 -10.66 97.57 -11 98.25 C-13.438 96.688 -13.438 96.688 -16 94.25 C-16.625 91.062 -16.625 91.062 -17 87.25 C-17.398 85.927 -17.835 84.616 -18.301 83.316 C-20.713 76.301 -22.553 69.121 -24.482 61.961 C-24.778 60.883 -25.074 59.806 -25.379 58.695 C-25.643 57.721 -25.906 56.747 -26.178 55.743 C-26.946 53.043 -26.946 53.043 -29 50.25 C-29.519 48.303 -30.034 46.353 -30.492 44.391 C-31.223 41.311 -32.114 38.288 -33 35.25 C-36.626 36.546 -39.328 38.077 -42.312 40.5 C-43.469 41.422 -43.469 41.422 -44.648 42.363 C-45.424 42.986 -46.2 43.609 -47 44.25 C-48.473 45.404 -49.952 46.55 -51.438 47.688 C-52.076 48.181 -52.714 48.675 -53.371 49.184 C-55 50.25 -55 50.25 -57 50.25 C-57.124 50.889 -57.248 51.529 -57.375 52.188 C-57.684 53.208 -57.684 53.208 -58 54.25 C-58.99 54.745 -58.99 54.745 -60 55.25 C-59.34 55.91 -58.68 56.57 -58 57.25 C-58.375 59.375 -58.375 59.375 -59 61.25 C-60.913 61.527 -62.831 61.77 -64.75 62 C-65.817 62.139 -66.885 62.278 -67.984 62.422 C-71 62.25 -71 62.25 -73.391 60.391 C-75 58.25 -75 58.25 -75 56.25 C-75.66 56.25 -76.32 56.25 -77 56.25 C-77.393 51.801 -76.153 49.108 -74 45.25 C-73.34 45.25 -72.68 45.25 -72 45.25 C-71.67 44.59 -71.34 43.93 -71 43.25 C-70.34 43.25 -69.68 43.25 -69 43.25 C-69 42.59 -69 41.93 -69 41.25 C-62.25 39.25 -62.25 39.25 -60 39.25 C-60 38.59 -60 37.93 -60 37.25 C-59.34 37.25 -58.68 37.25 -58 37.25 C-57.67 36.26 -57.34 35.27 -57 34.25 C-56.34 34.25 -55.68 34.25 -55 34.25 C-54.34 33.755 -53.68 33.26 -53 32.75 C-51 31.25 -51 31.25 -49 31.25 C-49.33 29.93 -49.66 28.61 -50 27.25 C-47 27.25 -47 27.25 -45 28.25 C-44.959 27.652 -44.917 27.054 -44.875 26.438 C-43.563 23.157 -41.106 22.708 -38 21.25 C-37.34 20.26 -36.68 19.27 -36 18.25 C-32.375 17.562 -32.375 17.562 -29 17.25 C-28.907 16.322 -28.907 16.322 -28.812 15.375 C-28 13.25 -28 13.25 -25.562 12.125 C-24.717 11.836 -23.871 11.547 -23 11.25 C-22.34 10.59 -21.68 9.93 -21 9.25 C-20.34 9.58 -19.68 9.91 -19 10.25 C-19 9.26 -19 8.27 -19 7.25 C-18.34 7.25 -17.68 7.25 -17 7.25 C-16.67 6.26 -16.34 5.27 -16 4.25 C-15.01 4.58 -14.02 4.91 -13 5.25 C-12.67 4.26 -12.34 3.27 -12 2.25 C-10.866 2.106 -9.731 1.961 -8.562 1.812 C-5.1 1.266 -3.505 0.073 0 0 Z M-10 9.25 C-10 9.91 -10 10.57 -10 11.25 C-9.34 10.92 -8.68 10.59 -8 10.25 C-8.66 9.92 -9.32 9.59 -10 9.25 Z M-25 20.25 C-25 20.91 -25 21.57 -25 22.25 C-24.34 21.92 -23.68 21.59 -23 21.25 C-23.66 20.92 -24.32 20.59 -25 20.25 Z M23 30.25 C23 33.25 23 33.25 23 33.25 Z M114 31.25 C114 31.91 114 32.57 114 33.25 C114.66 33.25 115.32 33.25 116 33.25 C116 32.59 116 31.93 116 31.25 C115.34 31.25 114.68 31.25 114 31.25 Z M-41 32.25 C-40 34.25 -40 34.25 -40 34.25 Z M-41 35.25 C-41 35.91 -41 36.57 -41 37.25 C-40.34 36.92 -39.68 36.59 -39 36.25 C-39.66 35.92 -40.32 35.59 -41 35.25 Z M105 39.25 C100.962 43.865 99 49.179 99 55.25 C101.572 54.895 102.797 54.446 104.688 52.625 C106.435 49.463 106.807 46.845 107 43.25 C106.194 40.878 106.194 40.878 105 39.25 Z M114 43.25 C115 45.25 115 45.25 115 45.25 Z M50 49.25 C51 51.25 51 51.25 51 51.25 Z M114 50.25 C115 52.25 115 52.25 115 52.25 Z M39 63.25 C40 65.25 40 65.25 40 65.25 Z M150 64.25 C150.33 64.91 150.66 65.57 151 66.25 C151.66 65.92 152.32 65.59 153 65.25 C152.01 64.92 151.02 64.59 150 64.25 Z M122 68.25 C123 70.25 123 70.25 123 70.25 Z M-11 79.25 C-10 81.25 -10 81.25 -10 81.25 Z M72 80.25 C73 82.25 73 82.25 73 82.25 Z M-7 90.25 C-7 90.91 -7 91.57 -7 92.25 C-6.34 91.92 -5.68 91.59 -5 91.25 C-5.66 90.92 -6.32 90.59 -7 90.25 Z " fill="currentColor" transform="translate(163,29.75)"/>
<path d="M0 0 C4.879 0.444 8.791 2.323 12 6 C15.777 14.182 17.11 23.648 18.992 32.438 C19.928 36.759 21.012 41.034 22.125 45.312 C23.65 51.204 24.666 57.072 25.5 63.098 C26.099 66.574 27.149 69.73 28.344 73.039 C29.331 75.988 29.64 78.915 30 82 C30.3 84.293 30.613 86.585 30.938 88.875 C31.168 90.573 31.168 90.573 31.402 92.305 C31.6 93.194 31.797 94.084 32 95 C42.471 100.236 58.9 94.432 69.702 91.959 C70.959 91.681 72.216 91.403 73.512 91.117 C75.205 90.724 75.205 90.724 76.932 90.324 C80.349 89.963 82.003 90.382 85 92 C86.333 93.333 87.667 94.667 89 96 C89.99 96 90.98 96 92 96 C92 96.99 92 97.98 92 99 C90.886 99.289 89.773 99.577 88.625 99.875 C84.997 100.692 84.997 100.692 83 103 C82.67 103.66 82.34 104.32 82 105 C81.196 104.918 80.391 104.835 79.562 104.75 C75.513 105.034 72.977 106.26 69.363 107.984 C66.334 109.286 63.342 109.936 60.117 110.566 C57.747 111.018 57.747 111.018 54.5 112.062 C51.029 112.992 47.768 113.442 44.203 113.781 C42.212 113.979 40.229 114.266 38.25 114.562 C35.443 114.94 32.826 115.086 30 115 C29.876 116.114 29.752 117.228 29.625 118.375 C29 122 29 122 27 124 C27.33 124.66 27.66 125.32 28 126 C26.562 128.625 26.562 128.625 25 131 C23.35 130.67 21.7 130.34 20 130 C19.34 131.32 18.68 132.64 18 134 C16.35 133.67 14.7 133.34 13 133 C13 132.34 13 131.68 13 131 C12.113 130.917 11.226 130.835 10.312 130.75 C6.515 129.89 4.904 128.532 2 126 C1.154 125.505 0.309 125.01 -0.562 124.5 C-3.208 122.872 -5.056 121.429 -7 119 C-7.165 117.969 -7.33 116.938 -7.5 115.875 C-7.665 114.926 -7.83 113.978 -8 113 C-9.9 111.758 -9.9 111.758 -12 111 C-12.66 110.01 -13.32 109.02 -14 108 C-14.66 108 -15.32 108 -16 108 C-20.942 124.392 -20.588 139.063 -18.282 155.892 C-17.998 158.017 -17.741 160.144 -17.492 162.273 C-16.715 168.885 -15.786 175.385 -14.367 181.891 C-13.84 184.922 -14 187.93 -14 191 C-13.683 191.699 -13.366 192.397 -13.039 193.117 C-11.582 197.161 -11.534 201.043 -11.375 205.312 C-11.336 206.129 -11.298 206.946 -11.258 207.787 C-11.086 211.628 -10.99 215.449 -11.039 219.293 C-11.006 222.435 -10.621 224.954 -10 228 C-9.957 230.416 -9.96 232.834 -10 235.25 C-10.037 237.5 -10.047 239.75 -10 242 C-9.67 242.33 -9.34 242.66 -9 243 C-8.74 247.514 -8.81 252.042 -8.812 256.562 C-8.812 257.553 -8.812 257.553 -8.812 258.565 C-8.829 271.145 -9.422 282.882 -13 295 C-13 295.33 -13 295.66 -13 296 C-13.584 300.87 -14.57 305.329 -16 310 C-16.66 310 -17.32 310 -18 310 C-18.33 311.32 -18.66 312.64 -19 314 C-19.66 314 -20.32 314 -21 314 C-21 313.34 -21 312.68 -21 312 C-21.66 312 -22.32 312 -23 312 C-22.67 313.32 -22.34 314.64 -22 316 C-23.688 316.812 -23.688 316.812 -26 317 C-28.75 314.562 -28.75 314.562 -31 312 C-30.67 311.67 -30.34 311.34 -30 311 C-31.145 310.257 -31.145 310.257 -32.312 309.5 C-35.67 306.377 -36.63 303.232 -38 299 C-38.318 298.219 -38.637 297.438 -38.965 296.633 C-44.579 282.693 -45.464 268.291 -45.281 253.439 C-45.25 250.842 -45.24 248.246 -45.234 245.648 C-45.225 243.971 -45.215 242.294 -45.203 240.617 C-45.197 239.472 -45.197 239.472 -45.19 238.303 C-45.131 233.8 -44.897 229.431 -44 225 C-43.34 224.67 -42.68 224.34 -42 224 C-42.33 221.36 -42.66 218.72 -43 216 C-42.34 216 -41.68 216 -41 216 C-41.495 212.535 -41.495 212.535 -42 209 C-41.34 209 -40.68 209 -40 209 C-40.351 208.278 -40.701 207.556 -41.062 206.812 C-42.145 203.566 -41.692 202.29 -41 199 C-40.934 197.126 -40.914 195.25 -40.938 193.375 C-40.947 192.434 -40.956 191.493 -40.965 190.523 C-40.976 189.691 -40.988 188.858 -41 188 C-41 187.01 -41 186.02 -41 185 C-40.34 185 -39.68 185 -39 185 C-39 184.34 -39 183.68 -39 183 C-39.66 182.67 -40.32 182.34 -41 182 C-40.722 180.824 -40.722 180.824 -40.438 179.625 C-39.74 177.029 -39.74 177.029 -41 175 C-40.01 175 -39.02 175 -38 175 C-38 174.34 -38 173.68 -38 173 C-38.99 173 -39.98 173 -41 173 C-40.25 165.375 -40.25 165.375 -38 162 C-38.66 162 -39.32 162 -40 162 C-40 153 -40 153 -38 151 C-37.794 148.864 -37.794 148.864 -37.938 146.438 C-38.054 140.696 -37.7 135.113 -36.438 129.5 C-35.086 121.778 -36.429 115.33 -39 108 C-38.34 108 -37.68 108 -37 108 C-37 107.34 -37 106.68 -37 106 C-37.99 105.505 -37.99 105.505 -39 105 C-39.363 103.005 -39.692 101.004 -40 99 C-40.351 98.196 -40.701 97.391 -41.062 96.562 C-42.262 93.283 -42.131 90.467 -42 87 C-42 82.683 -43.315 78.932 -45 75 C-45.186 76.516 -45.186 76.516 -45.375 78.062 C-45.975 81.844 -46.895 85.339 -48 89 C-48.341 90.331 -48.679 91.664 -49 93 C-49.66 93 -50.32 93 -51 93 C-50.67 93.99 -50.34 94.98 -50 96 C-50.639 96.124 -51.279 96.248 -51.938 96.375 C-52.958 96.684 -52.958 96.684 -54 97 C-54.33 97.66 -54.66 98.32 -55 99 C-54.01 99 -53.02 99 -52 99 C-53.24 104.785 -56.256 111.31 -61 115 C-66.993 117.854 -72.866 117.045 -79 115 C-79 114.34 -79 113.68 -79 113 C-79.584 112.78 -80.168 112.559 -80.77 112.332 C-83.699 110.582 -84.888 108.572 -86.688 105.688 C-87.289 104.743 -87.891 103.798 -88.512 102.824 C-89.95 100.094 -90.551 98.025 -91 95 C-91.277 94 -91.277 94 -91.559 92.98 C-92.066 90.703 -92.097 88.643 -92.062 86.312 C-92.053 85.525 -92.044 84.737 -92.035 83.926 C-92.024 83.29 -92.012 82.655 -92 82 C-92 81.67 -92 81.34 -92 81 C-92 79.333 -92 77.667 -92 76 C-91.01 76 -90.02 76 -89 76 C-89.33 75.67 -89.66 75.34 -90 75 C-90.66 75 -91.32 75 -92 75 C-90.564 65.185 -87.616 54.875 -80 48 C-74.202 43.724 -69.249 41.123 -62 41 C-60.332 41.326 -58.665 41.657 -57 42 C-54.791 40.172 -54.791 40.172 -54.562 37.562 C-54 35 -54 35 -52.875 33.188 C-49.768 31.219 -47.608 31.527 -44 32 C-36.765 35.47 -36.765 35.47 -35 39 C-35.049 41.991 -35.196 44.97 -35.355 47.957 C-35.269 51.093 -35.269 51.093 -33.125 53.258 C-30.063 57.209 -29.627 61.206 -28.812 66.062 C-28.646 67 -28.479 67.938 -28.308 68.905 C-25.174 87.071 -25.174 87.071 -27 96 C-21.758 91.537 -19.758 83.676 -17.938 77.25 C-16.951 73.828 -15.527 70.997 -13.879 67.859 C-12.822 65.624 -12.428 63.425 -12 61 C-11.01 60.01 -11.01 60.01 -10 59 C-9.763 57.172 -9.534 55.342 -9.352 53.508 C-8.662 48.585 -7.272 43.799 -6 39 C-5.34 39 -4.68 39 -4 39 C-4.186 38.216 -4.371 37.433 -4.562 36.625 C-5 34 -5 34 -4 32 C-2.972 23.789 -2.688 16.175 -4.625 8.074 C-5 6 -5 6 -4 4 C-3.01 4 -2.02 4 -1 4 C-0.67 2.68 -0.34 1.36 0 0 Z M11 10 C12 12 12 12 12 12 Z M12 13 C13 15 13 15 13 15 Z M17 35 C18 37 18 37 18 37 Z M-40 38 C-39 40 -39 40 -39 40 Z M18 38 C19 40 19 40 19 40 Z M6 42 C5.779 42.705 5.557 43.41 5.329 44.136 C4.307 47.384 3.278 50.629 2.25 53.875 C1.902 54.984 1.554 56.092 1.195 57.234 C-0.698 63.193 -2.713 69.032 -5.134 74.798 C-7.856 81.532 -7.856 81.532 -7.062 88.438 C-2.062 92.226 4.391 92.359 10.438 92.625 C11.535 92.683 11.535 92.683 12.654 92.742 C14.436 92.835 16.218 92.919 18 93 C17.367 87.602 16.572 82.277 15.562 76.938 C15.441 76.269 15.319 75.601 15.193 74.912 C14.37 70.521 13.276 66.279 12 62 C10.132 55.368 8.436 48.739 7 42 C6.67 42 6.34 42 6 42 Z M20 48 C21 50 21 50 21 50 Z M-71.25 58.312 C-78.651 65.545 -80.064 72.534 -80.25 82.562 C-80.129 89.054 -79.666 94.299 -76.188 99.938 C-73.655 102.325 -72.475 103 -69 103 C-64.089 101.084 -62.097 97.603 -60 93 C-57.191 86.42 -54.585 80.163 -54 73 C-53.814 71.907 -53.629 70.814 -53.438 69.688 C-52.946 67.125 -52.946 67.125 -53 65 C-52.814 64.402 -52.629 63.804 -52.438 63.188 C-51.859 60.297 -51.871 58.751 -53 56 C-60.082 51.375 -64.765 53.698 -71.25 58.312 Z M-82 72 C-81 74 -81 74 -81 74 Z M-47 78 C-47.33 78.66 -47.66 79.32 -48 80 C-47.34 80 -46.68 80 -46 80 C-46.33 79.34 -46.66 78.68 -47 78 Z M-51 87 C-50.34 87.66 -49.68 88.32 -49 89 C-49 88.34 -49 87.68 -49 87 C-49.66 87 -50.32 87 -51 87 Z M82 96 C81.67 96.66 81.34 97.32 81 98 C81.66 98 82.32 98 83 98 C82.67 97.34 82.34 96.68 82 96 Z M-56 100 C-55 102 -55 102 -55 102 Z M-59 101 C-58.67 101.66 -58.34 102.32 -58 103 C-57.67 102.34 -57.34 101.68 -57 101 C-57.66 101 -58.32 101 -59 101 Z M-60 105 C-59.67 105.99 -59.34 106.98 -59 108 C-58.34 107.67 -57.68 107.34 -57 107 C-57.33 106.34 -57.66 105.68 -58 105 C-58.66 105 -59.32 105 -60 105 Z M53 106 C54 108 54 108 54 108 Z M-19 107 C-18 109 -18 109 -18 109 Z M59 107 C59.33 107.66 59.66 108.32 60 109 C60.66 108.34 61.32 107.68 62 107 C61.01 107 60.02 107 59 107 Z M-62 109 C-61.67 110.32 -61.34 111.64 -61 113 C-60.67 111.68 -60.34 110.36 -60 109 C-60.66 109 -61.32 109 -62 109 Z M6 109 C7 111 7 111 7 111 Z M-69 111 C-68 113 -68 113 -68 113 Z M7 111 C10.208 114.887 10.208 114.887 14.812 116.312 C15.895 116.158 15.895 116.158 17 116 C16.67 114.68 16.34 113.36 16 112 C13.03 111.67 10.06 111.34 7 111 Z M-71 114 C-70.67 114.66 -70.34 115.32 -70 116 C-69.67 115.34 -69.34 114.68 -69 114 C-69.66 114 -70.32 114 -71 114 Z M23 126 C23 126.66 23 127.32 23 128 C23.66 127.67 24.32 127.34 25 127 C24.34 126.67 23.68 126.34 23 126 Z M15 130 C15 130.66 15 131.32 15 132 C15.99 132.33 16.98 132.66 18 133 C18 132.34 18 131.68 18 131 C17.01 130.67 16.02 130.34 15 130 Z M-23 142 C-22 144 -22 144 -22 144 Z M-23 150 C-22.34 150.66 -21.68 151.32 -21 152 C-21 151.34 -21 150.68 -21 150 C-21.66 150 -22.32 150 -23 150 Z M-31 166 C-30.67 166.99 -30.34 167.98 -30 169 C-29.67 168.01 -29.34 167.02 -29 166 C-29.66 166 -30.32 166 -31 166 Z M-20 168 C-19 171 -19 171 -19 171 Z M-33 173 C-32.34 173.66 -31.68 174.32 -31 175 C-31 174.34 -31 173.68 -31 173 C-31.66 173 -32.32 173 -33 173 Z M-31 175 C-31 175.66 -31 176.32 -31 177 C-30.34 177 -29.68 177 -29 177 C-29.142 178.75 -29.289 180.5 -29.438 182.25 C-29.519 183.225 -29.6 184.199 -29.684 185.203 C-30 188 -30 188 -30.566 190.145 C-31.177 192.249 -31.177 192.249 -30.5 195.438 C-29.498 202.541 -30.556 209.732 -31.516 216.797 C-32.884 227.143 -33.24 237.436 -33.299 247.86 C-33.308 249.429 -33.322 250.998 -33.341 252.567 C-33.501 267.353 -32.009 280.675 -25 294 C-24.876 293.423 -24.752 292.845 -24.625 292.25 C-24 290 -24 290 -22.914 288.078 C-21.736 285.399 -21.996 283.631 -22.375 280.75 C-22.486 279.858 -22.597 278.966 -22.711 278.047 C-22.806 277.371 -22.902 276.696 -23 276 C-22.01 275.505 -22.01 275.505 -21 275 C-21.66 273.35 -22.32 271.7 -23 270 C-22.34 270 -21.68 270 -21 270 C-20.34 267.69 -19.68 265.38 -19 263 C-19.99 263 -20.98 263 -22 263 C-21.838 262.067 -21.675 261.133 -21.508 260.172 C-20.8 255.206 -20.854 250.257 -20.875 245.25 C-20.871 244.305 -20.867 243.36 -20.863 242.387 C-20.865 241.481 -20.866 240.574 -20.867 239.641 C-20.868 238.821 -20.869 238.002 -20.871 237.157 C-20.918 234.816 -20.918 234.816 -22 232 C-21.01 231.505 -21.01 231.505 -20 231 C-20.66 230.34 -21.32 229.68 -22 229 C-22.036 227.099 -22.06 225.197 -22.012 223.296 C-21.991 219.357 -22.501 215.473 -22.938 211.562 C-23.733 204.173 -24.324 196.811 -24.57 189.381 C-24.727 185.787 -25.057 183.072 -27 180 C-26.34 180 -25.68 180 -25 180 C-25.33 179.34 -25.66 178.68 -26 178 C-26.99 178.495 -26.99 178.495 -28 179 C-27.67 178.01 -27.34 177.02 -27 176 C-28.32 175.67 -29.64 175.34 -31 175 Z M-33 178 C-32.67 179.65 -32.34 181.3 -32 183 C-31.67 183 -31.34 183 -31 183 C-31 181.35 -31 179.7 -31 178 C-31.66 178 -32.32 178 -33 178 Z M-32 202 C-31 204 -31 204 -31 204 Z M-41 210 C-40 212 -40 212 -40 212 Z M-34 219 C-33 221 -33 221 -33 221 Z M-12 229 C-11 231 -11 231 -11 231 Z M-19 246 C-18 248 -18 248 -18 248 Z M-37 253 C-36 255 -36 255 -36 255 Z M-11 257 C-11.33 257.99 -11.66 258.98 -12 260 C-11.34 260 -10.68 260 -10 260 C-10.33 259.01 -10.66 258.02 -11 257 Z M-13 278 C-13 278.66 -13 279.32 -13 280 C-12.34 280 -11.68 280 -11 280 C-11 279.34 -11 278.68 -11 278 C-11.66 278 -12.32 278 -13 278 Z M-15 282 C-14 284 -14 284 -14 284 Z M-16 292 C-15.67 292.66 -15.34 293.32 -15 294 C-14.67 293.34 -14.34 292.68 -14 292 C-14.66 292 -15.32 292 -16 292 Z M-27 312 C-27.33 312.66 -27.66 313.32 -28 314 C-27.01 313.67 -26.02 313.34 -25 313 C-25.66 312.67 -26.32 312.34 -27 312 Z " fill="currentColor" transform="translate(384,103)"/>
<path d="M0 0 C2.372 0.756 3.914 1.61 6 3 C6 3.66 6 4.32 6 5 C6.66 5 7.32 5 8 5 C8.66 6.65 9.32 8.3 10 10 C10.66 10 11.32 10 12 10 C17.475 20.444 18.19 29.399 18 41 C17.01 41.495 17.01 41.495 16 42 C16.351 42.619 16.701 43.238 17.062 43.875 C17.372 44.576 17.681 45.278 18 46 C17.505 46.99 17.505 46.99 17 48 C15.68 48 14.36 48 13 48 C13.99 48.99 14.98 49.98 16 51 C15.34 51.99 14.68 52.98 14 54 C13.34 54 12.68 54 12 54 C11.67 54.99 11.34 55.98 11 57 C11 56.34 11 55.68 11 55 C10.34 55 9.68 55 9 55 C8.67 56.65 8.34 58.3 8 60 C7.01 60 6.02 60 5 60 C4.67 61.32 4.34 62.64 4 64 C3.34 64 2.68 64 2 64 C1.67 64.66 1.34 65.32 1 66 C-1.215 66.598 -1.215 66.598 -3.938 67.062 C-7.588 67.668 -7.588 67.668 -11 69 C-12.677 68.721 -14.346 68.392 -16 68 C-16 71.3 -16 74.6 -16 78 C-15.01 78 -14.02 78 -13 78 C-11.527 79.363 -11.527 79.363 -9.938 81.312 C-6.096 85.921 -2.036 90.298 2.059 94.68 C4 97 4 97 4 99 C4.901 99.375 4.901 99.375 5.82 99.758 C13.001 103.85 16.605 114.886 20 122 C19.01 122 18.02 122 17 122 C17 122.66 17 123.32 17 124 C18.485 123.505 18.485 123.505 20 123 C23.896 130.261 27.188 137.668 30.25 145.312 C30.761 146.583 30.761 146.583 31.283 147.88 C32.728 151.531 34.076 155.111 35.047 158.918 C36.006 162.021 36.641 162.942 39 165 C39.857 166.411 40.668 167.852 41.438 169.312 C42.948 172.123 44.492 174.816 46.312 177.438 C48 180 48 180 48 182 C48.66 182 49.32 182 50 182 C51.289 183.68 51.289 183.68 52.625 185.875 C53.071 186.594 53.517 187.314 53.977 188.055 C55 190 55 190 55 192 C55.66 192 56.32 192 57 192 C57.99 195.465 57.99 195.465 59 199 C58.34 199.66 57.68 200.32 57 201 C57 201.33 57 201.66 57 202 C52.743 202.639 50.321 201.888 46.875 199.5 C43.479 196.751 41.828 194.252 40.133 190.281 C38.197 186.382 35.446 183.057 32.805 179.613 C31.078 177.113 30.039 174.839 29 172 C28.546 171.278 28.093 170.556 27.625 169.812 C23.898 163.361 21.665 156.314 19.809 149.129 C18.906 146.753 17.87 145.683 16 144 C12.907 139.691 12.907 139.691 13.312 136.688 C13.539 136.131 13.766 135.574 14 135 C13.34 135 12.68 135 12 135 C10.908 133.294 9.903 131.531 8.938 129.75 C3.38 119.952 -3.541 111.408 -11 103 C-10.175 113.978 -9.318 124.896 -7.438 135.75 C-5.838 145.157 -5.246 154.469 -5 164 C-4.973 164.869 -4.946 165.738 -4.917 166.633 C-4.842 169.255 -4.791 171.877 -4.75 174.5 C-4.728 175.308 -4.707 176.115 -4.685 176.947 C-4.653 182.561 -4.653 182.561 -6.379 184.745 C-8 186 -8 186 -10.262 185.855 C-11.462 185.525 -11.462 185.525 -12.688 185.188 C-13.496 184.975 -14.304 184.762 -15.137 184.543 C-15.752 184.364 -16.366 184.185 -17 184 C-17.124 182.824 -17.248 181.649 -17.375 180.438 C-18.014 175.328 -19.492 170.583 -21.062 165.688 C-22.025 161.902 -22.45 158.313 -22.754 154.43 C-23.01 151.9 -23.495 149.492 -24 147 C-24.318 145.22 -24.631 143.438 -24.938 141.656 C-25.11 140.657 -25.283 139.658 -25.461 138.629 C-25.82 136.543 -26.18 134.457 -26.539 132.371 C-26.712 131.372 -26.885 130.373 -27.062 129.344 C-27.218 128.438 -27.374 127.533 -27.535 126.6 C-27.99 124.059 -28.488 121.53 -29 119 C-32.023 102.933 -32.023 102.933 -32.562 95.938 C-32.639 95.082 -32.715 94.226 -32.793 93.344 C-32.923 91.866 -33.033 90.387 -33.113 88.906 C-33.826 83.541 -36.529 81.476 -40.625 78.062 C-45.783 73.694 -45.783 73.694 -46.793 70.469 C-46.826 66.38 -46.305 64.457 -44 61 C-41.617 60.707 -41.617 60.707 -38.875 60.812 C-37.51 60.853 -37.51 60.853 -36.117 60.895 C-35.419 60.929 -34.72 60.964 -34 61 C-34.095 59.961 -34.191 58.922 -34.289 57.852 C-34.946 49.899 -35.26 42.771 -33 35 C-33.99 35 -34.98 35 -36 35 C-37.614 31.772 -37.586 28.489 -37 25 C-34.875 21.938 -34.875 21.938 -32 20 C-28.688 20.188 -28.688 20.188 -26 21 C-25.897 19.783 -25.794 18.566 -25.688 17.312 C-24.72 9.976 -20.626 6.36 -15 2 C-10.339 -1.108 -5.463 -0.497 0 0 Z M6 12 C6 12.66 6 13.32 6 14 C6.66 13.67 7.32 13.34 8 13 C7.34 12.67 6.68 12.34 6 12 Z M-14 20 C-15.569 23.115 -15.569 23.115 -16.812 26.438 C-17.252 27.529 -17.692 28.621 -18.145 29.746 C-19.098 33.374 -18.753 35.364 -18 39 C-17.957 41.583 -17.959 44.167 -18 46.75 C-18.286 51.543 -18.286 51.543 -17 56 C-9.125 56.553 -5.321 54.642 0.75 49.812 C6.161 43.049 6.437 36.388 5.504 27.961 C4.612 22.719 3.241 20.048 -0.812 16.625 C-7.236 13.35 -9.996 14.249 -14 20 Z M11 16 C11 16.66 11 17.32 11 18 C11.66 18 12.32 18 13 18 C13 17.34 13 16.68 13 16 C12.34 16 11.68 16 11 16 Z M13 24 C14 26 14 26 14 26 Z M12 28 C13 30 13 30 13 30 Z M16 35 C17 37 17 37 17 37 Z M13 42 C14 44 14 44 14 44 Z M12 45 C13 47 13 47 13 47 Z M15 45 C16 47 16 47 16 47 Z M-15 79 C-15 79.66 -15 80.32 -15 81 C-14.34 80.67 -13.68 80.34 -13 80 C-13.66 79.67 -14.32 79.34 -15 79 Z M-24 90 C-23.482 98.444 -22.544 106.681 -21 115 C-20.34 114.67 -19.68 114.34 -19 114 C-18.662 106.011 -18.556 98.393 -22 91 C-22.66 90.67 -23.32 90.34 -24 90 Z M-21 116 C-20 118 -20 118 -20 118 Z M-20 120 C-19.67 120.66 -19.34 121.32 -19 122 C-18.67 121.34 -18.34 120.68 -18 120 C-18.66 120 -19.32 120 -20 120 Z M28 155 C29 157 29 157 29 157 Z M-8 180 C-7 182 -7 182 -7 182 Z " fill="currentColor" transform="translate(185,133)"/>
<path d="M0 0 C2.438 1.125 2.438 1.125 5 3 C6.455 8.091 6.455 8.091 5 11 C5.66 11 6.32 11 7 11 C7.144 12.072 7.289 13.145 7.438 14.25 C7.87 17.75 7.87 17.75 8.625 20.062 C9.164 22.845 8.562 25.251 8 28 C8.66 28 9.32 28 10 28 C10.168 29.625 10.334 31.25 10.5 32.875 C10.593 33.78 10.686 34.685 10.781 35.617 C11 38 11 38 11 40 C11.155 41.376 11.323 42.751 11.5 44.125 C11.665 45.404 11.83 46.683 12 48 C11.01 48 10.02 48 9 48 C9 48.66 9 49.32 9 50 C9.639 50.289 10.279 50.577 10.938 50.875 C13 52 13 52 14 54 C14.217 55.372 14.389 56.751 14.535 58.133 C14.666 59.341 14.666 59.341 14.799 60.574 C14.929 61.837 14.929 61.837 15.062 63.125 C15.153 63.974 15.244 64.824 15.338 65.699 C15.562 67.799 15.781 69.9 16 72 C16.724 71.676 17.449 71.353 18.195 71.02 C26.19 67.726 26.19 67.726 30.688 69.25 C31.451 69.827 32.214 70.405 33 71 C32.505 72.98 32.505 72.98 32 75 C31.34 75 30.68 75 30 75 C29.34 75.99 28.68 76.98 28 78 C27.67 78.33 27.34 78.66 27 79 C26.34 79 25.68 79 25 79 C24.505 80.485 24.505 80.485 24 82 C23.154 82.495 22.309 82.99 21.438 83.5 C20.633 83.995 19.829 84.49 19 85 C19 89.911 19.243 93.864 22 98 C21.979 98.743 21.959 99.485 21.938 100.25 C21.828 103.196 21.828 103.196 23.5 106.375 C25.098 110.236 25.165 112.875 25 117 C25.33 117.33 25.66 117.66 26 118 C26.376 119.699 26.701 121.41 27 123.125 C27.177 124.121 27.353 125.118 27.535 126.145 C27.896 128.358 28.182 130.584 28.438 132.812 C29.058 136.33 30.356 138.849 32 142 C32.607 144.429 33 146.505 33 149 C33.99 149.99 33.99 149.99 35 151 C34.34 151.99 33.68 152.98 33 154 C33.66 154 34.32 154 35 154 C34.34 155.65 33.68 157.3 33 159 C32.01 158.67 31.02 158.34 30 158 C28.68 158 27.36 158 26 158 C25.01 158 24.02 158 23 158 C23.278 157.041 23.278 157.041 23.562 156.062 C23.707 155.382 23.851 154.701 24 154 C23.67 153.67 23.34 153.34 23 153 C23.093 151.113 23.093 151.113 23.188 149.188 C23.254 145.836 23.202 145.253 21 142.5 C20.34 142.005 19.68 141.51 19 141 C19.66 139.35 20.32 137.7 21 136 C20.01 135.67 19.02 135.34 18 135 C17.162 132.246 16.505 129.623 15.938 126.812 C15.616 125.298 15.292 123.783 14.965 122.27 C14.809 121.539 14.652 120.808 14.491 120.056 C13.979 117.772 13.979 117.772 12.887 114.723 C11.665 110.971 11.865 107.921 12 104 C11.34 104 10.68 104 10 104 C9.832 102.375 9.666 100.75 9.5 99.125 C9.407 98.22 9.314 97.315 9.219 96.383 C9 94 9 94 9 92 C5.308 93.412 1.81 95.033 -1.688 96.875 C-2.64 97.367 -3.593 97.86 -4.574 98.367 C-7.277 100.186 -8.027 100.93 -9 104 C-10.444 112.202 -10.303 120.577 -10.43 128.885 C-10.476 130.576 -10.476 130.576 -10.523 132.301 C-10.543 133.323 -10.563 134.346 -10.583 135.4 C-11.06 138.373 -11.735 139.122 -14 141 C-15.176 143.1 -15.176 143.1 -16 145 C-22.289 143.391 -25.447 140.33 -29 135 C-28.977 132.738 -28.977 132.738 -28.625 130.312 C-28.514 129.504 -28.403 128.696 -28.289 127.863 C-28.194 127.248 -28.098 126.634 -28 126 C-27.67 126.66 -27.34 127.32 -27 128 C-26.34 128 -25.68 128 -25 128 C-25.186 127.196 -25.371 126.391 -25.562 125.562 C-26.004 121.969 -25.793 119.066 -25.316 115.508 C-24.854 111.844 -24.629 108.164 -24.379 104.48 C-23.991 101.944 -23.137 100.269 -22 98 C-22.33 97.34 -22.66 96.68 -23 96 C-22.911 93.872 -22.756 91.746 -22.562 89.625 C-22.168 85.197 -21.954 80.886 -22.062 76.438 C-22 74 -22 74 -21 71 C-21.009 67.899 -21.13 64.813 -21.258 61.715 C-21.173 60.819 -21.088 59.923 -21 59 C-20.01 58.34 -19.02 57.68 -18 57 C-18.66 56.67 -19.32 56.34 -20 56 C-19.86 53.854 -19.713 51.708 -19.562 49.562 C-19.481 48.368 -19.4 47.173 -19.316 45.941 C-19 43 -19 43 -18 42 C-17.856 40.866 -17.711 39.731 -17.562 38.562 C-17 35 -17 35 -15 33 C-14.714 30.996 -14.431 28.989 -14.246 26.973 C-14 25 -14 25 -13 22 C-12.557 19.939 -12.121 17.876 -11.688 15.812 C-10.446 10.318 -8.776 5.883 -6 1 C-4.793 1.031 -4.793 1.031 -3.562 1.062 C-1.066 1.296 -1.066 1.296 0 0 Z M1 17 C2 19 2 19 2 19 Z M6 23 C7 25 7 25 7 25 Z M-3 27 C-3.116 27.64 -3.232 28.281 -3.351 28.94 C-3.88 31.856 -4.409 34.772 -4.938 37.688 C-5.12 38.695 -5.302 39.702 -5.49 40.74 C-5.667 41.717 -5.845 42.693 -6.027 43.699 C-6.271 45.042 -6.271 45.042 -6.519 46.413 C-6.839 48.133 -7.174 49.849 -7.525 51.563 C-9.531 61.858 -10.701 72.622 -9 83 C-7.249 82.547 -5.499 82.087 -3.75 81.625 C-2.775 81.37 -1.801 81.115 -0.797 80.852 C1.668 80.101 3.724 79.18 6 78 C5.002 67.26 3.946 56.616 2 46 C1.757 44.522 1.516 43.045 1.277 41.566 C1.018 40.003 0.759 38.439 0.5 36.875 C0.381 36.127 0.263 35.379 0.141 34.609 C-0.502 30.368 -0.502 30.368 -3 27 Z M8 29 C9 31 9 31 9 31 Z M1 30 C2 32 2 32 2 32 Z M4 51 C5 53 5 53 5 53 Z M-10 53 C-9 55 -9 55 -9 55 Z M8 56 C9.485 56.99 9.485 56.99 11 58 C11 57.34 11 56.68 11 56 C10.01 56 9.02 56 8 56 Z M16 100 C17 102 17 102 17 102 Z M17 103 C18 106 18 106 18 106 Z M-14 105 C-13 107 -13 107 -13 107 Z M22 110 C23 112 23 112 23 112 Z M17 113 C18 115 18 115 18 115 Z M22 124 C22 124.66 22 125.32 22 126 C22.66 125.67 23.32 125.34 24 125 C23.34 124.67 22.68 124.34 22 124 Z M-16 125 C-15 127 -15 127 -15 127 Z M19 132 C20 135 20 135 20 135 Z M-15 137 C-14 139 -14 139 -14 139 Z M26 138 C26.33 139.32 26.66 140.64 27 142 C27.66 142 28.32 142 29 142 C29 140.68 29 139.36 29 138 C28.01 138 27.02 138 26 138 Z M-18 141 C-18 141.66 -18 142.32 -18 143 C-17.34 142.67 -16.68 142.34 -16 142 C-16.66 141.67 -17.32 141.34 -18 141 Z M27 144 C27 144.66 27 145.32 27 146 C28.32 145.67 29.64 145.34 31 145 C29.68 144.67 28.36 144.34 27 144 Z M30 149 C29.67 149.66 29.34 150.32 29 151 C29.66 151 30.32 151 31 151 C30.67 150.34 30.34 149.68 30 149 Z M29 153 C29.66 153.66 30.32 154.32 31 155 C31 154.34 31 153.68 31 153 C30.34 153 29.68 153 29 153 Z " fill="currentColor" transform="translate(252,132)"/>
<path d="M0 0 C1.052 0.186 2.104 0.371 3.188 0.562 C6.703 0.966 8.633 0.739 12 0 C16.313 -0.306 19.27 -0.487 23 2 C23 2.66 23 3.32 23 4 C23.895 4.159 24.789 4.317 25.711 4.48 C33.551 5.993 40.093 8.004 47 12 C48.031 12.536 49.062 13.072 50.125 13.625 C51.053 14.306 51.053 14.306 52 15 C52 15.99 52 16.98 52 18 C52.66 18 53.32 18 54 18 C54 18.66 54 19.32 54 20 C54.639 20.268 55.279 20.536 55.938 20.812 C58 22 58 22 59 25 C60.326 25.681 61.66 26.346 63 27 C64.746 28.77 64.746 28.77 66.438 30.812 C68.512 33.281 70.579 35.615 72.938 37.812 C75 40 75 40 75 43 C75.66 43 76.32 43 77 43 C77.99 47.455 77.99 47.455 79 52 C79.99 52 80.98 52 82 52 C97.434 80.322 97.434 80.322 100.484 93.016 C101.092 95.353 101.99 97.467 102.938 99.688 C104.503 103.545 105.574 107.196 106.367 111.27 C107.057 114.247 107.953 117.119 108.871 120.033 C112.455 131.527 115.705 144.59 110 156 C107.938 156.625 107.938 156.625 106 157 C106.66 157 107.32 157 108 157 C109 160 109 160 107.75 163.062 C106 166 106 166 103 168 C101.787 171.054 101.787 171.054 101 174 C100.01 173.67 99.02 173.34 98 173 C97.67 174.65 97.34 176.3 97 178 C96.34 178 95.68 178 95 178 C94.752 179.114 94.505 180.227 94.25 181.375 C93 185 93 185 90.938 186.25 C90.298 186.498 89.659 186.745 89 187 C88.67 187.99 88.34 188.98 88 190 C83.657 194 83.657 194 80 194 C79.546 194.454 79.093 194.908 78.625 195.375 C77 197 77 197 74.688 197.875 C71.84 199.067 69.967 200.703 67.648 202.703 C60.508 208.321 50.039 211.733 41 211 C41 212.65 41 214.3 41 216 C37.604 218.09 34.948 218.263 31 218 C30.67 217.67 30.34 217.34 30 217 C26.935 216.839 24.945 217.018 22 218 C19.313 217.062 19.313 217.062 17 216 C17 215.34 17 214.68 17 214 C13.7 213.34 10.4 212.68 7 212 C7 211.34 7 210.68 7 210 C6.01 209.67 5.02 209.34 4 209 C3 207.188 3 207.188 2 205 C1.484 204.423 0.969 203.845 0.438 203.25 C-2.12 199.247 -2 194.684 -2 190 C5.99 189.693 5.99 189.693 9 192 C11.627 195.164 13.694 198.082 15 202 C15.572 201.857 16.145 201.714 16.734 201.566 C20.156 200.711 23.578 199.855 27 199 C27.043 197.334 27.041 195.666 27 194 C26.67 193.67 26.34 193.34 26 193 C25.913 191.438 25.893 189.873 25.902 188.309 C25.906 187.364 25.909 186.42 25.912 185.447 C25.925 183.957 25.925 183.957 25.938 182.438 C25.942 181.44 25.947 180.443 25.951 179.416 C25.963 176.944 25.979 174.472 26 172 C26.66 172 27.32 172 28 172 C28 171.34 28 170.68 28 170 C27.01 170.33 26.02 170.66 25 171 C25.164 170.444 25.327 169.889 25.496 169.316 C26.047 166.783 26.098 164.528 26.062 161.938 C26.053 161.08 26.044 160.223 26.035 159.34 C26.024 158.568 26.012 157.796 26 157 C26 156.01 26 155.02 26 154 C25.672 151.666 25.339 149.332 25 147 C25 146.34 25 145.68 25 145 C24.67 144.67 24.34 144.34 24 144 C23.959 142 23.957 140 24 138 C24.33 138.99 24.66 139.98 25 141 C25.66 141 26.32 141 27 141 C25.832 131.031 25.832 131.031 22.938 121.5 C21.725 118.268 21.504 115.198 21.227 111.77 C21.069 109.847 20.874 107.927 20.648 106.012 C20.538 105.038 20.427 104.065 20.312 103.062 C20.206 102.167 20.099 101.271 19.988 100.348 C20 98 20 98 22 95 C20.515 94.505 20.515 94.505 19 94 C19.165 93.072 19.33 92.144 19.5 91.188 C20.077 88.044 20.077 88.044 20 85 C20.66 85 21.32 85 22 85 C22 84.34 22 83.68 22 83 C20.515 82.505 20.515 82.505 19 82 C16.984 78.286 16.733 75.177 17 71 C17.189 70.364 17.379 69.729 17.574 69.074 C18.075 66.634 17.72 65.241 17 62.875 C15.894 59.212 15.894 59.212 17 57 C16.34 56.67 15.68 56.34 15 56 C15.33 55.67 15.66 55.34 16 55 C15.34 54.34 14.68 53.68 14 53 C13.757 51.229 13.527 49.455 13.352 47.676 C12.901 44.243 12.16 40.883 11.438 37.5 C10.343 32.179 9.669 27.414 10 22 C8.989 21.897 7.979 21.794 6.938 21.688 C1.808 20.792 -2.23 19.239 -6.5 16.25 C-8 14 -8 14 -8 10.562 C-6.933 6.762 -5.821 4.738 -3 2 C-2.01 2 -1.02 2 0 2 C0 1.34 0 0.68 0 0 Z M22 19 C22.795 33.202 22.795 33.202 26 47 C25.979 48.196 25.959 49.392 25.938 50.625 C25.88 54.53 26.575 57.943 27.492 61.723 C28.913 68.094 29.173 74.734 29.719 81.227 C30.156 85.537 30.821 89.811 31.465 94.094 C32.977 104.991 33.652 115.932 34.302 126.908 C34.791 135.128 34.791 135.128 35.559 143.324 C36.08 148.209 36.072 153.03 36 157.938 C35.955 164.119 36.022 170.185 36.715 176.336 C37.202 180.889 37.436 185.462 37.719 190.031 C37.893 193.053 37.893 193.053 39 196 C49.483 195.604 57.43 189.474 65.938 183.875 C66.576 183.455 67.215 183.036 67.873 182.604 C71.284 180.314 74.097 177.923 77 175 C77.99 174.67 78.98 174.34 80 174 C80 173.34 80 172.68 80 172 C82.97 171.01 82.97 171.01 86 170 C85.34 169.67 84.68 169.34 84 169 C87.75 163.25 87.75 163.25 90 161 C89.67 160.01 89.34 159.02 89 158 C89.614 157.925 90.227 157.85 90.859 157.773 C93.16 157.187 93.16 157.187 94.266 155.039 C94.59 154.242 94.915 153.446 95.25 152.625 C95.585 151.834 95.92 151.042 96.266 150.227 C97.157 147.916 97.157 147.916 97 145 C97.99 144.67 98.98 144.34 100 144 C99.34 143.67 98.68 143.34 98 143 C98.351 142.113 98.701 141.226 99.062 140.312 C100.035 136.876 99.91 135.366 99 132 C99 130.333 99 128.667 99 127 C98.34 127 97.68 127 97 127 C96.944 126.147 96.944 126.147 96.887 125.277 C96.43 119.918 95.174 115.958 93 111 C92.458 108.419 92.014 105.843 91.625 103.234 C90.898 100.637 89.886 99.862 88 98 C87.156 95.66 87.156 95.66 86.5 93.062 C85.557 89.342 84.378 87.003 82 84 C81.658 82.669 81.322 81.336 81 80 C80.01 79.505 80.01 79.505 79 79 C77.625 76.097 77 74.239 77 71 C76.34 71 75.68 71 75 71 C74.732 70.319 74.464 69.639 74.188 68.938 C73.6 67.483 73.6 67.483 73 66 C72.546 64.824 72.093 63.649 71.625 62.438 C70.065 59.138 68.575 57.486 66 55 C66 54.01 66 53.02 66 52 C65.317 49.884 65.317 49.884 64 48 C63.361 47.711 62.721 47.423 62.062 47.125 C59.07 45.493 58.503 43.006 57 40 C53.963 36.922 53.963 36.922 50 36 C49.67 34.35 49.34 32.7 49 31 C48.422 30.917 47.845 30.835 47.25 30.75 C44.366 29.789 43.063 28.196 41 26 C38.324 23.815 38.324 23.815 36 24 C34.667 23.333 33.333 22.667 32 22 C28.694 20.829 25.405 19.829 22 19 Z M56 25 C57 27 57 27 57 27 Z M51 33 C52 35 52 35 52 35 Z M13 37 C14 39 14 39 14 39 Z M72 40 C72 40.99 72 41.98 72 43 C72.66 42.67 73.32 42.34 74 42 C73.34 41.34 72.68 40.68 72 40 Z M75 46 C75 46.66 75 47.32 75 48 C75.66 48 76.32 48 77 48 C77 47.34 77 46.68 77 46 C76.34 46 75.68 46 75 46 Z M21 50 C21 50.66 21 51.32 21 52 C21.66 52 22.32 52 23 52 C23 51.34 23 50.68 23 50 C22.34 50 21.68 50 21 50 Z M80 56 C81 58 81 58 81 58 Z M82 59 C83 61 83 61 83 61 Z M83 64 C84 66 84 66 84 66 Z M88 73 C88.99 73.99 89.98 74.98 91 76 C91.33 75.34 91.66 74.68 92 74 C90.68 73.67 89.36 73.34 88 73 Z M23 74 C24 76 24 76 24 76 Z M26 81 C27 83 27 83 27 83 Z M26 86 C27 88 27 88 27 88 Z M27 88 C27 88.66 27 89.32 27 90 C27.66 90 28.32 90 29 90 C29 89.34 29 88.68 29 88 C28.34 88 27.68 88 27 88 Z M95 92 C96 95 96 95 96 95 Z M97 92 C97.66 92.66 98.32 93.32 99 94 C99 93.34 99 92.68 99 92 C98.34 92 97.68 92 97 92 Z M24 94 C24 94.66 24 95.32 24 96 C24.66 95.67 25.32 95.34 26 95 C25.34 94.67 24.68 94.34 24 94 Z M24 100 C23.505 101.98 23.505 101.98 23 104 C23.66 103.67 24.32 103.34 25 103 C24.67 102.01 24.34 101.02 24 100 Z M30 102 C30 102.66 30 103.32 30 104 C30.66 103.67 31.32 103.34 32 103 C31.34 102.67 30.68 102.34 30 102 Z M24 107 C25 109 25 109 25 109 Z M31 108 C32 110 32 110 32 110 Z M32 112 C33 114 33 114 33 114 Z M31 126 C31.66 126.66 32.32 127.32 33 128 C33 127.34 33 126.68 33 126 C32.34 126 31.68 126 31 126 Z M31 129 C32 131 32 131 32 131 Z M28 130 C28 130.66 28 131.32 28 132 C28.66 131.67 29.32 131.34 30 131 C29.34 130.67 28.68 130.34 28 130 Z M30 134 C31 136 31 136 31 136 Z M108 150 C108 150.99 108 151.98 108 153 C108.66 153 109.32 153 110 153 C109.67 152.01 109.34 151.02 109 150 C108.67 150 108.34 150 108 150 Z M27 160 C28 162 28 162 28 162 Z M104 162 C103.67 162.66 103.34 163.32 103 164 C103.66 164 104.32 164 105 164 C104.67 163.34 104.34 162.68 104 162 Z M27 186 C27 186.66 27 187.32 27 188 C27.66 188 28.32 188 29 188 C29 187.34 29 186.68 29 186 C28.34 186 27.68 186 27 186 Z M85 187 C86 189 86 189 86 189 Z M74 191 C73.67 191.66 73.34 192.32 73 193 C73.99 193 74.98 193 76 193 C76 192.34 76 191.68 76 191 C75.34 191 74.68 191 74 191 Z M56 203 C56.33 203.66 56.66 204.32 57 205 C57.33 204.34 57.66 203.68 58 203 C57.34 203 56.68 203 56 203 Z " fill="currentColor" transform="translate(38,151)"/>
<path d="M0 0 C0.66 0 1.32 0 2 0 C2 0.66 2 1.32 2 2 C1.34 2 0.68 2 0 2 C0 1.34 0 0.68 0 0 Z " fill="currentColor" transform="translate(190,193)"/>
<path d="M0 0 C0.99 0.495 0.99 0.495 2 1 C1.67 2.32 1.34 3.64 1 5 C0.505 2.525 0.505 2.525 0 0 Z " fill="currentColor" transform="translate(281,291)"/>
<path d="M0 0 C0.99 0.33 1.98 0.66 3 1 C3 1.66 3 2.32 3 3 C2.01 2.67 1.02 2.34 0 2 C0 1.34 0 0.68 0 0 Z " fill="currentColor" transform="translate(355,423)"/>
</svg>
